Nokyung-R.ufo
<glyph name="comma" format="1">
  <advance width="766"/>
  <unicode hex="002C"/>
  <outline>
    <contour>
      <point x="160" y="134" type="curve" smooth="yes"/>
      <point x="160" y="225"/>
      <point x="215" y="281"/>
      <point x="306" y="281" type="curve" smooth="yes"/>
      <point x="399" y="281"/>
      <point x="460" y="225"/>
      <point x="460" y="134" type="curve" smooth="yes"/>
      <point x="460" y="-62"/>
      <point x="382" y="-183"/>
      <point x="214" y="-241" type="curve" smooth="yes"/>
      <point x="205" y="-244"/>
      <point x="199" y="-242"/>
      <point x="195" y="-233" type="curve" smooth="yes"/>
      <point x="181" y="-193" type="line"/>
      <point x="179" y="-184"/>
      <point x="178" y="-174"/>
      <point x="188" y="-170" type="curve" smooth="yes"/>
      <point x="279" y="-137"/>
      <point x="349" y="-68"/>
      <point x="366" y="10" type="curve"/>
      <point x="352" y="-6"/>
      <point x="326" y="-19"/>
      <point x="286" y="-19" type="curve" smooth="yes"/>
      <point x="225" y="-19"/>
      <point x="160" y="43"/>
    </contour>
  </outline>
</glyph>
<glyph name="periodcentered" format="1">
  <advance width="378"/>
  <unicode hex="00B7"/>
  <outline>
    <contour>
      <point x="281" y="748" type="curve" smooth="yes"/>
      <point x="281" y="673"/>
      <point x="240" y="622"/>
      <point x="188" y="622" type="curve" smooth="yes"/>
      <point x="135" y="622"/>
      <point x="96" y="675"/>
      <point x="96" y="748" type="curve" smooth="yes"/>
      <point x="96" y="786"/>
      <point x="106" y="816"/>
      <point x="125" y="839" type="curve" smooth="yes"/>
      <point x="142" y="860"/>
      <point x="163" y="870"/>
      <point x="188" y="870" type="curve" smooth="yes"/>
      <point x="236" y="870"/>
      <point x="281" y="820"/>
    </contour>
  </outline>
</glyph>
<glyph name="uni1983" format="1">
  <advance width="1185"/>
  <unicode hex="1983"/>
  <outline>
    <contour>
      <point x="128" y="-442" type="curve" smooth="yes"/>
      <point x="123.671" y="-432.139"/>
      <point x="132" y="-420"/>
      <point x="142" y="-416" type="curve" smooth="yes"/>
      <point x="174" y="-405" type="line" smooth="yes"/>
      <point x="182" y="-402"/>
      <point x="194.291" y="-411.179"/>
      <point x="199" y="-420" type="curve" smooth="yes"/>
      <point x="270" y="-553"/>
      <point x="383" y="-635"/>
      <point x="573" y="-635" type="curve" smooth="yes"/>
      <point x="820" y="-635"/>
      <point x="970" y="-430"/>
      <point x="970" y="-170" type="curve" smooth="yes"/>
      <point x="970" y="151"/>
      <point x="801" y="350"/>
      <point x="504" y="350" type="curve" smooth="yes"/>
      <point x="367" y="350"/>
      <point x="234" y="303"/>
      <point x="234" y="215" type="curve" smooth="yes"/>
      <point x="234" y="137"/>
      <point x="367" y="90"/>
      <point x="499" y="90" type="curve" smooth="yes"/>
      <point x="756" y="90"/>
      <point x="950" y="228"/>
      <point x="950" y="470" type="curve" smooth="yes"/>
      <point x="950" y="689"/>
      <point x="806" y="805"/>
      <point x="574" y="805" type="curve" smooth="yes"/>
      <point x="413" y="805"/>
      <point x="290" y="732"/>
      <point x="229" y="625" type="curve" smooth="yes"/>
      <point x="223" y="614"/>
      <point x="209" y="611"/>
      <point x="199" y="619" type="curve" smooth="yes"/>
      <point x="130" y="673" type="line" smooth="yes"/>
      <point x="120" y="681"/>
      <point x="117" y="694"/>
      <point x="124" y="705" type="curve" smooth="yes"/>
      <point x="211" y="852"/>
      <point x="367" y="930"/>
      <point x="574" y="930" type="curve" smooth="yes"/>
      <point x="909" y="930"/>
      <point x="1075" y="728"/>
      <point x="1075" y="470" type="curve" smooth="yes"/>
      <point x="1075" y="166"/>
      <point x="845" y="-20"/>
      <point x="499" y="-20" type="curve" smooth="yes"/>
      <point x="305" y="-20"/>
      <point x="124" y="72"/>
      <point x="124" y="215" type="curve" smooth="yes"/>
      <point x="124" y="379"/>
      <point x="305" y="460"/>
      <point x="504" y="460" type="curve" smooth="yes"/>
      <point x="871" y="460"/>
      <point x="1095" y="233"/>
      <point x="1095" y="-170" type="curve" smooth="yes"/>
      <point x="1095" y="-503"/>
      <point x="900" y="-740"/>
      <point x="573" y="-740" type="curve" smooth="yes"/>
      <point x="351" y="-740"/>
      <point x="200" y="-606"/>
    </contour>
  </outline>
</glyph>
<glyph name="uni198D" format="1">
  <advance width="1905"/>
  <unicode hex="198D"/>
  <outline>
    <contour>
      <point x="910" y="380" type="curve" smooth="yes"/>
      <point x="910" y="390"/>
      <point x="918" y="400"/>
      <point x="927" y="400" type="curve" smooth="yes"/>
      <point x="977" y="400" type="line" smooth="yes"/>
      <point x="988" y="400"/>
      <point x="995" y="390"/>
      <point x="995" y="380" type="curve" smooth="yes"/>
      <point x="995" y="331"/>
      <point x="984" y="275"/>
      <point x="974" y="238" type="curve" smooth="yes"/>
      <point x="933" y="84"/>
      <point x="772" y="-20"/>
      <point x="565" y="-20" type="curve" smooth="yes"/>
      <point x="268" y="-20"/>
      <point x="110" y="188"/>
      <point x="110" y="450" type="curve" smooth="yes"/>
      <point x="110" y="712"/>
      <point x="250" y="929"/>
      <point x="495" y="930" type="curve" smooth="yes"/>
      <point x="527" y="930"/>
      <point x="564" y="925"/>
      <point x="595" y="912" type="curve" smooth="yes"/>
      <point x="605" y="908"/>
      <point x="608" y="896"/>
      <point x="603" y="887" type="curve" smooth="yes"/>
      <point x="557" y="808" type="line" smooth="yes"/>
      <point x="553" y="800"/>
      <point x="541" y="800"/>
      <point x="530" y="802" type="curve" smooth="yes"/>
      <point x="521" y="804"/>
      <point x="506" y="805"/>
      <point x="495" y="805" type="curve" smooth="yes"/>
      <point x="335" y="805"/>
      <point x="235" y="644"/>
      <point x="235" y="450" type="curve" smooth="yes"/>
      <point x="235" y="250"/>
      <point x="369" y="105"/>
      <point x="565" y="105" type="curve" smooth="yes"/>
      <point x="762" y="105"/>
      <point x="910" y="209"/>
    </contour>
    <contour>
      <point x="995" y="380" type="curve" smooth="yes"/>
      <point x="995" y="209"/>
      <point x="1143" y="105"/>
      <point x="1340" y="105" type="curve" smooth="yes"/>
      <point x="1536" y="105"/>
      <point x="1670" y="250"/>
      <point x="1670" y="450" type="curve" smooth="yes"/>
      <point x="1670" y="640"/>
      <point x="1570" y="805"/>
      <point x="1410" y="805" type="curve" smooth="yes"/>
      <point x="1399" y="805"/>
      <point x="1384" y="804"/>
      <point x="1375" y="802" type="curve" smooth="yes"/>
      <point x="1364" y="800"/>
      <point x="1352" y="800"/>
      <point x="1348" y="808" type="curve" smooth="yes"/>
      <point x="1302" y="887" type="line" smooth="yes"/>
      <point x="1297" y="896"/>
      <point x="1300" y="908"/>
      <point x="1310" y="912" type="curve" smooth="yes"/>
      <point x="1341" y="925"/>
      <point x="1378" y="930"/>
      <point x="1410" y="930" type="curve" smooth="yes"/>
      <point x="1655" y="929"/>
      <point x="1795" y="722"/>
      <point x="1795" y="450" type="curve" smooth="yes"/>
      <point x="1795" y="188"/>
      <point x="1637" y="-20"/>
      <point x="1340" y="-20" type="curve" smooth="yes"/>
      <point x="1133" y="-20"/>
      <point x="972" y="84"/>
      <point x="931" y="238" type="curve" smooth="yes"/>
      <point x="921" y="275"/>
      <point x="910" y="331"/>
      <point x="910" y="380" type="curve" smooth="yes"/>
      <point x="910" y="390"/>
      <point x="917" y="400"/>
      <point x="928" y="400" type="curve" smooth="yes"/>
      <point x="978" y="400" type="line" smooth="yes"/>
      <point x="987" y="400"/>
      <point x="995" y="390"/>
    </contour>
  </outline>
</glyph>
<glyph name="uni198E" format="1">
  <advance width="1851"/>
  <unicode hex="198E"/>
  <outline>
    <contour>
      <point x="555" y="930" type="curve" smooth="yes"/>
      <point x="832" y="930"/>
      <point x="995" y="733"/>
      <point x="995" y="450" type="curve" smooth="yes"/>
      <point x="995" y="187"/>
      <point x="842" y="-20"/>
      <point x="555" y="-20" type="curve" smooth="yes"/>
      <point x="258" y="-20"/>
      <point x="110" y="188"/>
      <point x="110" y="450" type="curve" smooth="yes"/>
      <point x="110" y="722"/>
      <point x="268" y="930"/>
    </contour>
    <contour>
      <point x="555" y="805" type="curve" smooth="yes"/>
      <point x="349" y="805"/>
      <point x="235" y="651"/>
      <point x="235" y="450" type="curve" smooth="yes"/>
      <point x="235" y="250"/>
      <point x="359" y="105"/>
      <point x="555" y="105" type="curve" smooth="yes"/>
      <point x="752" y="105"/>
      <point x="870" y="260"/>
      <point x="870" y="450" type="curve" smooth="yes"/>
      <point x="870" y="651"/>
      <point x="742" y="805"/>
    </contour>
    <contour>
      <point x="1296" y="805" type="curve" smooth="yes"/>
      <point x="1107" y="805"/>
      <point x="981" y="700"/>
      <point x="921" y="606" type="curve"/>
      <point x="851" y="715" type="line"/>
      <point x="933" y="824"/>
      <point x="1099" y="930"/>
      <point x="1296" y="930" type="curve" smooth="yes"/>
      <point x="1573" y="930"/>
      <point x="1741" y="742"/>
      <point x="1741" y="450" type="curve" smooth="yes"/>
      <point x="1741" y="208"/>
      <point x="1611" y="-19"/>
      <point x="1316" y="-20" type="curve" smooth="yes"/>
      <point x="1259" y="-20"/>
      <point x="1187" y="-9"/>
      <point x="1136" y="20" type="curve" smooth="yes"/>
      <point x="1127" y="25"/>
      <point x="1123" y="36"/>
      <point x="1128" y="45" type="curve" smooth="yes"/>
      <point x="1174" y="124" type="line" smooth="yes"/>
      <point x="1178" y="132"/>
      <point x="1192" y="135"/>
      <point x="1201" y="130" type="curve" smooth="yes"/>
      <point x="1227" y="115"/>
      <point x="1276" y="105"/>
      <point x="1316" y="105" type="curve" smooth="yes"/>
      <point x="1526" y="105"/>
      <point x="1616" y="270"/>
      <point x="1616" y="450" type="curve" smooth="yes"/>
      <point x="1616" y="670"/>
      <point x="1472" y="805"/>
    </contour>
  </outline>
</glyph>
<glyph name="uni1990" format="1">
  <advance width="1735"/>
  <unicode hex="1990"/>
  <outline>
    <contour>
      <point x="110" y="450" type="curve" smooth="yes"/>
      <point x="110" y="722"/>
      <point x="220" y="929"/>
      <point x="465" y="930" type="curve" smooth="yes"/>
      <point x="497" y="930"/>
      <point x="534" y="925"/>
      <point x="565" y="912" type="curve" smooth="yes"/>
      <point x="575" y="908"/>
      <point x="578" y="896"/>
      <point x="573" y="887" type="curve" smooth="yes"/>
      <point x="527" y="808" type="line" smooth="yes"/>
      <point x="523" y="800"/>
      <point x="511" y="800"/>
      <point x="500" y="802" type="curve" smooth="yes"/>
      <point x="491" y="804"/>
      <point x="476" y="805"/>
      <point x="465" y="805" type="curve" smooth="yes"/>
      <point x="305" y="805"/>
      <point x="235" y="640"/>
      <point x="235" y="450" type="curve" smooth="yes"/>
      <point x="235" y="220"/>
      <point x="362" y="105"/>
      <point x="508" y="105" type="curve" smooth="yes"/>
      <point x="694" y="105"/>
      <point x="770" y="238"/>
      <point x="803" y="455" type="curve" smooth="yes"/>
      <point x="839" y="689"/>
      <point x="912" y="930"/>
      <point x="1213" y="930" type="curve" smooth="yes"/>
      <point x="1510" y="930"/>
      <point x="1625" y="672"/>
      <point x="1625" y="420" type="curve" smooth="yes"/>
      <point x="1625" y="158"/>
      <point x="1495" y="-19"/>
      <point x="1250" y="-20" type="curve" smooth="yes"/>
      <point x="1218" y="-20"/>
      <point x="1181" y="-15"/>
      <point x="1150" y="-2" type="curve" smooth="yes"/>
      <point x="1140" y="2"/>
      <point x="1137" y="14"/>
      <point x="1142" y="23" type="curve" smooth="yes"/>
      <point x="1188" y="102" type="line" smooth="yes"/>
      <point x="1192" y="110"/>
      <point x="1204" y="110"/>
      <point x="1215" y="108" type="curve" smooth="yes"/>
      <point x="1224" y="106"/>
      <point x="1239" y="105"/>
      <point x="1250" y="105" type="curve" smooth="yes"/>
      <point x="1410" y="105"/>
      <point x="1500" y="230"/>
      <point x="1500" y="420" type="curve" smooth="yes"/>
      <point x="1500" y="610"/>
      <point x="1419" y="805"/>
      <point x="1213" y="805" type="curve" smooth="yes"/>
      <point x="1024" y="805"/>
      <point x="961" y="639"/>
      <point x="933" y="455" type="curve" smooth="yes"/>
      <point x="891" y="178"/>
      <point x="796" y="-20"/>
      <point x="508" y="-20" type="curve" smooth="yes"/>
      <point x="261" y="-20"/>
      <point x="110" y="158"/>
    </contour>
    <contour>
      <point x="709.165" y="-427.999" type="curve" smooth="yes"/>
      <point x="700.676" y="-397.289"/>
      <point x="703.499" y="-391.922"/>
      <point x="715.167" y="-387.668" type="curve" smooth="yes"/>
      <point x="748.167" y="-375" type="line" smooth="yes"/>
      <point x="759.601" y="-370.611"/>
      <point x="770.928" y="-375.876"/>
      <point x="778.167" y="-399.001" type="curve" smooth="yes"/>
      <point x="826.167" y="-552.333"/>
      <point x="962" y="-635"/>
      <point x="1175" y="-635" type="curve" smooth="yes"/>
      <point x="1393" y="-635"/>
      <point x="1480" y="-531"/>
      <point x="1480" y="-415" type="curve" smooth="yes"/>
      <point x="1480" y="-311"/>
      <point x="1398" y="-211"/>
      <point x="1234" y="-215" type="curve" smooth="yes"/>
      <point x="1224" y="-215.244"/>
      <point x="1215" y="-208"/>
      <point x="1215" y="-197" type="curve" smooth="yes"/>
      <point x="1215" y="50" type="line"/>
      <point x="1325" y="50" type="line"/>
      <point x="1325" y="-104" type="line" smooth="yes"/>
      <point x="1325" y="-113"/>
      <point x="1334.82" y="-120.405"/>
      <point x="1345" y="-121" type="curve" smooth="yes"/>
      <point x="1516" y="-131"/>
      <point x="1605" y="-262"/>
      <point x="1605" y="-415" type="curve" smooth="yes"/>
      <point x="1605" y="-577"/>
      <point x="1490" y="-740"/>
      <point x="1175" y="-740" type="curve" smooth="yes"/>
      <point x="904" y="-740"/>
      <point x="750.167" y="-576.333"/>
    </contour>
  </outline>
</glyph>
<glyph name="uni1994" format="1">
  <advance width="1457"/>
  <unicode hex="1994"/>
  <outline>
    <contour>
      <point x="575" y="-20" type="curve" smooth="yes"/>
      <point x="311" y="-20"/>
      <point x="110" y="184"/>
      <point x="110" y="480" type="curve" smooth="yes"/>
      <point x="110" y="691"/>
      <point x="191" y="849"/>
      <point x="370" y="930" type="curve" smooth="yes"/>
      <point x="380" y="934"/>
      <point x="391" y="933"/>
      <point x="396" y="924" type="curve" smooth="yes"/>
      <point x="444" y="846" type="line" smooth="yes"/>
      <point x="449" y="838"/>
      <point x="445" y="823"/>
      <point x="435" y="820" type="curve" smooth="yes"/>
      <point x="300" y="772"/>
      <point x="235" y="653"/>
      <point x="235" y="480" type="curve" smooth="yes"/>
      <point x="235" y="283"/>
      <point x="353" y="105"/>
      <point x="575" y="105" type="curve" smooth="yes"/>
      <point x="922" y="105"/>
      <point x="934.311" y="466.869"/>
      <point x="897" y="770" type="curve" smooth="yes"/>
      <point x="828.912" y="1323.17"/>
      <point x="864" y="1650"/>
      <point x="1141" y="1650" type="curve" smooth="yes"/>
      <point x="1368" y="1650"/>
      <point x="1420" y="1479"/>
      <point x="1370" y="1229" type="curve" smooth="yes"/>
      <point x="1368" y="1219"/>
      <point x="1363" y="1209"/>
      <point x="1354" y="1209" type="curve" smooth="yes"/>
      <point x="1314" y="1210" type="line" smooth="yes"/>
      <point x="1303" y="1210"/>
      <point x="1296" y="1219"/>
      <point x="1296" y="1229" type="curve" smooth="yes"/>
      <point x="1296" y="1418"/>
      <point x="1280" y="1555"/>
      <point x="1141" y="1555" type="curve" smooth="yes"/>
      <point x="988" y="1555"/>
      <point x="958.27" y="1274.14"/>
      <point x="1023" y="770" type="curve" smooth="yes"/>
      <point x="1073.24" y="378.75"/>
      <point x="995" y="-20"/>
    </contour>
  </outline>
</glyph>
<glyph name="uni1996" format="1">
  <advance width="1735"/>
  <unicode hex="1996"/>
  <outline>
    <contour>
      <point x="110" y="450" type="curve" smooth="yes"/>
      <point x="110" y="722"/>
      <point x="220" y="929"/>
      <point x="465" y="930" type="curve" smooth="yes"/>
      <point x="497" y="930"/>
      <point x="534" y="925"/>
      <point x="565" y="912" type="curve" smooth="yes"/>
      <point x="575" y="908"/>
      <point x="578" y="896"/>
      <point x="573" y="887" type="curve" smooth="yes"/>
      <point x="527" y="808" type="line" smooth="yes"/>
      <point x="523" y="800"/>
      <point x="511" y="800"/>
      <point x="500" y="802" type="curve" smooth="yes"/>
      <point x="491" y="804"/>
      <point x="476" y="805"/>
      <point x="465" y="805" type="curve" smooth="yes"/>
      <point x="305" y="805"/>
      <point x="235" y="640"/>
      <point x="235" y="450" type="curve" smooth="yes"/>
      <point x="235" y="220"/>
      <point x="362" y="105"/>
      <point x="508" y="105" type="curve" smooth="yes"/>
      <point x="694" y="105"/>
      <point x="770" y="238"/>
      <point x="803" y="455" type="curve" smooth="yes"/>
      <point x="839" y="689"/>
      <point x="912" y="930"/>
      <point x="1213" y="930" type="curve" smooth="yes"/>
      <point x="1510" y="930"/>
      <point x="1625" y="672"/>
      <point x="1625" y="420" type="curve" smooth="yes"/>
      <point x="1625" y="158"/>
      <point x="1495" y="-19"/>
      <point x="1250" y="-20" type="curve" smooth="yes"/>
      <point x="1218" y="-20"/>
      <point x="1181" y="-15"/>
      <point x="1150" y="-2" type="curve" smooth="yes"/>
      <point x="1140" y="2"/>
      <point x="1137" y="14"/>
      <point x="1142" y="23" type="curve" smooth="yes"/>
      <point x="1188" y="102" type="line" smooth="yes"/>
      <point x="1192" y="110"/>
      <point x="1204" y="110"/>
      <point x="1215" y="108" type="curve" smooth="yes"/>
      <point x="1224" y="106"/>
      <point x="1239" y="105"/>
      <point x="1250" y="105" type="curve" smooth="yes"/>
      <point x="1410" y="105"/>
      <point x="1500" y="230"/>
      <point x="1500" y="420" type="curve" smooth="yes"/>
      <point x="1500" y="610"/>
      <point x="1419" y="805"/>
      <point x="1213" y="805" type="curve" smooth="yes"/>
      <point x="1024" y="805"/>
      <point x="961" y="639"/>
      <point x="933" y="455" type="curve" smooth="yes"/>
      <point x="891" y="178"/>
      <point x="796" y="-20"/>
      <point x="508" y="-20" type="curve" smooth="yes"/>
      <point x="261" y="-20"/>
      <point x="110" y="158"/>
    </contour>
    <contour>
      <point x="1600" y="-445" type="curve" smooth="yes"/>
      <point x="1590" y="-611"/>
      <point x="1376" y="-740"/>
      <point x="1135" y="-740" type="curve" smooth="yes"/>
      <point x="840" y="-740"/>
      <point x="710" y="-587"/>
      <point x="710" y="-435" type="curve" smooth="yes"/>
      <point x="710" y="-232"/>
      <point x="921.5" y="-121"/>
      <point x="1195" y="-141" type="curve" smooth="yes"/>
      <point x="1205.02" y="-141.733"/>
      <point x="1215" y="-133"/>
      <point x="1215" y="-124" type="curve" smooth="yes"/>
      <point x="1215" y="30" type="line"/>
      <point x="1325" y="30" type="line"/>
      <point x="1325" y="-227" type="line" smooth="yes"/>
      <point x="1325" y="-238"/>
      <point x="1315.98" y="-246.145"/>
      <point x="1306" y="-245" type="curve" smooth="yes"/>
      <point x="1009.5" y="-211"/>
      <point x="835" y="-271"/>
      <point x="835" y="-435" type="curve" smooth="yes"/>
      <point x="835" y="-541"/>
      <point x="910.998" y="-633.13"/>
      <point x="1140" y="-635" type="curve" smooth="yes"/>
      <point x="1363.01" y="-636.821"/>
      <point x="1515" y="-535"/>
      <point x="1525" y="-445" type="curve" smooth="yes"/>
      <point x="1526" y="-438"/>
      <point x="1532" y="-428"/>
      <point x="1543" y="-428" type="curve" smooth="yes"/>
      <point x="1583" y="-428" type="line" smooth="yes"/>
      <point x="1592" y="-428"/>
      <point x="1601" y="-436"/>
    </contour>
  </outline>
</glyph>
<glyph name="uni1997" format="1">
  <advance width="1805"/>
  <unicode hex="1997"/>
  <outline>
    <contour>
      <point x="945" y="530" type="curve" smooth="yes"/>
      <point x="945" y="520"/>
      <point x="937" y="510"/>
      <point x="928" y="510" type="curve" smooth="yes"/>
      <point x="878" y="510" type="line" smooth="yes"/>
      <point x="867" y="510"/>
      <point x="860" y="520"/>
      <point x="860" y="530" type="curve" smooth="yes"/>
      <point x="860" y="579"/>
      <point x="871" y="635"/>
      <point x="881" y="672" type="curve" smooth="yes"/>
      <point x="922" y="826"/>
      <point x="1083" y="930"/>
      <point x="1260" y="930" type="curve" smooth="yes"/>
      <point x="1527" y="930"/>
      <point x="1695" y="722"/>
      <point x="1695" y="460" type="curve" smooth="yes"/>
      <point x="1695" y="248"/>
      <point x="1605" y="-19"/>
      <point x="1360" y="-20" type="curve" smooth="yes"/>
      <point x="1328" y="-20"/>
      <point x="1291" y="-15"/>
      <point x="1260" y="-2" type="curve" smooth="yes"/>
      <point x="1250" y="2"/>
      <point x="1247" y="14"/>
      <point x="1252" y="23" type="curve" smooth="yes"/>
      <point x="1298" y="102" type="line" smooth="yes"/>
      <point x="1302" y="110"/>
      <point x="1314" y="110"/>
      <point x="1325" y="108" type="curve" smooth="yes"/>
      <point x="1334" y="106"/>
      <point x="1349" y="105"/>
      <point x="1360" y="105" type="curve" smooth="yes"/>
      <point x="1520" y="105"/>
      <point x="1570" y="316"/>
      <point x="1570" y="460" type="curve" smooth="yes"/>
      <point x="1570" y="660"/>
      <point x="1426" y="805"/>
      <point x="1260" y="805" type="curve" smooth="yes"/>
      <point x="1093" y="805"/>
      <point x="945" y="701"/>
    </contour>
    <contour>
      <point x="860" y="530" type="curve" smooth="yes"/>
      <point x="860" y="701"/>
      <point x="712" y="805"/>
      <point x="545" y="805" type="curve" smooth="yes"/>
      <point x="379" y="805"/>
      <point x="235" y="660"/>
      <point x="235" y="460" type="curve" smooth="yes"/>
      <point x="235" y="320"/>
      <point x="285" y="105"/>
      <point x="445" y="105" type="curve" smooth="yes"/>
      <point x="456" y="105"/>
      <point x="471" y="106"/>
      <point x="480" y="108" type="curve" smooth="yes"/>
      <point x="491" y="110"/>
      <point x="503" y="110"/>
      <point x="507" y="102" type="curve" smooth="yes"/>
      <point x="553" y="23" type="line" smooth="yes"/>
      <point x="558" y="14"/>
      <point x="555" y="2"/>
      <point x="545" y="-2" type="curve" smooth="yes"/>
      <point x="514" y="-15"/>
      <point x="477" y="-20"/>
      <point x="445" y="-20" type="curve" smooth="yes"/>
      <point x="200" y="-19"/>
      <point x="110" y="248"/>
      <point x="110" y="460" type="curve" smooth="yes"/>
      <point x="110" y="722"/>
      <point x="278" y="930"/>
      <point x="545" y="930" type="curve" smooth="yes"/>
      <point x="722" y="930"/>
      <point x="883" y="826"/>
      <point x="924" y="672" type="curve" smooth="yes"/>
      <point x="934" y="635"/>
      <point x="945" y="579"/>
      <point x="945" y="530" type="curve" smooth="yes"/>
      <point x="945" y="520"/>
      <point x="938" y="510"/>
      <point x="927" y="510" type="curve" smooth="yes"/>
      <point x="877" y="510" type="line" smooth="yes"/>
      <point x="868" y="510"/>
      <point x="860" y="520"/>
    </contour>
    <contour>
      <point x="1047" y="-270" type="curve" smooth="yes"/>
      <point x="869" y="-270"/>
      <point x="810" y="-363"/>
      <point x="810" y="-445" type="curve" smooth="yes"/>
      <point x="810" y="-537"/>
      <point x="881" y="-635"/>
      <point x="1170" y="-635" type="curve" smooth="yes"/>
      <point x="1469" y="-635"/>
      <point x="1550" y="-477"/>
      <point x="1550" y="-355" type="curve" smooth="yes"/>
      <point x="1550" y="174" type="line"/>
      <point x="1675" y="480" type="line"/>
      <point x="1675" y="-355" type="line" smooth="yes"/>
      <point x="1675" y="-573"/>
      <point x="1518" y="-740"/>
      <point x="1170" y="-740" type="curve" smooth="yes"/>
      <point x="842" y="-740"/>
      <point x="700" y="-603"/>
      <point x="700" y="-445" type="curve" smooth="yes"/>
      <point x="700" y="-293"/>
      <point x="833" y="-175"/>
      <point x="1047" y="-175" type="curve" smooth="yes"/>
      <point x="1250" y="-175"/>
      <point x="1350" y="-248"/>
      <point x="1352" y="-360" type="curve" smooth="yes"/>
      <point x="1354" y="-468"/>
      <point x="1188" y="-550"/>
      <point x="1022" y="-490" type="curve" smooth="yes"/>
      <point x="1012" y="-486"/>
      <point x="1003" y="-480"/>
      <point x="1003" y="-470" type="curve" smooth="yes"/>
      <point x="1003" y="-433" type="line" smooth="yes"/>
      <point x="1003" y="-425"/>
      <point x="1013" y="-412"/>
      <point x="1022" y="-415" type="curve" smooth="yes"/>
      <point x="1129" y="-457"/>
      <point x="1252" y="-423"/>
      <point x="1252" y="-365" type="curve" smooth="yes"/>
      <point x="1252" y="-313"/>
      <point x="1200" y="-270"/>
    </contour>
  </outline>
</glyph>
<glyph name="uni199B" format="1">
  <advance width="1735"/>
  <unicode hex="199B"/>
  <outline>
    <contour>
      <point x="459" y="-485" type="curve" smooth="yes"/>
      <point x="459" y="-570"/>
      <point x="569" y="-595"/>
      <point x="675" y="-595" type="curve" smooth="yes"/>
      <point x="961" y="-595"/>
      <point x="1275" y="-430"/>
      <point x="1275" y="-325" type="curve" smooth="yes"/>
      <point x="1275" y="-250"/>
      <point x="1191" y="-210"/>
      <point x="1045" y="-210" type="curve" smooth="yes"/>
      <point x="759" y="-210"/>
      <point x="459" y="-370"/>
    </contour>
    <contour>
      <point x="345" y="-495" type="curve" smooth="yes"/>
      <point x="345" y="-300"/>
      <point x="721" y="-105"/>
      <point x="1065" y="-105" type="curve" smooth="yes"/>
      <point x="1269" y="-105"/>
      <point x="1389" y="-180"/>
      <point x="1389" y="-315" type="curve" smooth="yes"/>
      <point x="1389" y="-508"/>
      <point x="999" y="-700"/>
      <point x="655" y="-700" type="curve" smooth="yes"/>
      <point x="491" y="-700"/>
      <point x="345" y="-638"/>
    </contour>
    <component base="uni19A0"/>
    <component base="uni19A0"/>
  </outline>
</glyph>
<glyph name="uni199C" format="1">
  <advance width="1735"/>
  <unicode hex="199C"/>
  <outline>
    <contour>
      <point x="110" y="450" type="curve" smooth="yes"/>
      <point x="110" y="722"/>
      <point x="220" y="929"/>
      <point x="465" y="930" type="curve" smooth="yes"/>
      <point x="497" y="930"/>
      <point x="534" y="925"/>
      <point x="565" y="912" type="curve" smooth="yes"/>
      <point x="575" y="908"/>
      <point x="578" y="896"/>
      <point x="573" y="887" type="curve" smooth="yes"/>
      <point x="527" y="808" type="line" smooth="yes"/>
      <point x="523" y="800"/>
      <point x="511" y="800"/>
      <point x="500" y="802" type="curve" smooth="yes"/>
      <point x="491" y="804"/>
      <point x="476" y="805"/>
      <point x="465" y="805" type="curve" smooth="yes"/>
      <point x="305" y="805"/>
      <point x="235" y="640"/>
      <point x="235" y="450" type="curve" smooth="yes"/>
      <point x="235" y="220"/>
      <point x="362" y="105"/>
      <point x="508" y="105" type="curve" smooth="yes"/>
      <point x="694" y="105"/>
      <point x="770" y="238"/>
      <point x="803" y="455" type="curve" smooth="yes"/>
      <point x="839" y="689"/>
      <point x="912" y="930"/>
      <point x="1213" y="930" type="curve" smooth="yes"/>
      <point x="1510" y="930"/>
      <point x="1625" y="672"/>
      <point x="1625" y="420" type="curve" smooth="yes"/>
      <point x="1625" y="158"/>
      <point x="1495" y="-19"/>
      <point x="1250" y="-20" type="curve" smooth="yes"/>
      <point x="1218" y="-20"/>
      <point x="1181" y="-15"/>
      <point x="1150" y="-2" type="curve" smooth="yes"/>
      <point x="1140" y="2"/>
      <point x="1137" y="14"/>
      <point x="1142" y="23" type="curve" smooth="yes"/>
      <point x="1188" y="102" type="line" smooth="yes"/>
      <point x="1192" y="110"/>
      <point x="1204" y="110"/>
      <point x="1215" y="108" type="curve" smooth="yes"/>
      <point x="1224" y="106"/>
      <point x="1239" y="105"/>
      <point x="1250" y="105" type="curve" smooth="yes"/>
      <point x="1410" y="105"/>
      <point x="1500" y="230"/>
      <point x="1500" y="420" type="curve" smooth="yes"/>
      <point x="1500" y="610"/>
      <point x="1419" y="805"/>
      <point x="1213" y="805" type="curve" smooth="yes"/>
      <point x="1024" y="805"/>
      <point x="961" y="639"/>
      <point x="933" y="455" type="curve" smooth="yes"/>
      <point x="891" y="178"/>
      <point x="796" y="-20"/>
      <point x="508" y="-20" type="curve" smooth="yes"/>
      <point x="261" y="-20"/>
      <point x="110" y="158"/>
    </contour>
    <contour>
      <point x="1090" y="-350" type="curve" smooth="yes"/>
      <point x="1187" y="-350"/>
      <point x="1271" y="-279"/>
      <point x="1330" y="-110" type="curve" smooth="yes"/>
      <point x="1336.54" y="-91.2603"/>
      <point x="1343.38" y="-82.4141"/>
      <point x="1352" y="-85" type="curve" smooth="yes"/>
      <point x="1372" y="-91"/>
      <point x="1384.89" y="-96"/>
      <point x="1393" y="-100" type="curve" smooth="yes"/>
      <point x="1402.77" y="-104.815"/>
      <point x="1404.31" y="-111.649"/>
      <point x="1399" y="-130" type="curve" smooth="yes"/>
      <point x="1335" y="-351"/>
      <point x="1218" y="-450"/>
      <point x="1090" y="-450" type="curve" smooth="yes"/>
      <point x="875" y="-450"/>
      <point x="805" y="-220"/>
      <point x="610" y="-220" type="curve" smooth="yes"/>
      <point x="497" y="-220"/>
      <point x="405" y="-303"/>
      <point x="405" y="-435" type="curve" smooth="yes"/>
      <point x="405" y="-577.24"/>
      <point x="497" y="-650.844"/>
      <point x="610" y="-650.844" type="curve" smooth="yes"/>
      <point x="715.911" y="-650.844"/>
      <point x="790" y="-578"/>
      <point x="831" y="-507" type="curve" smooth="yes"/>
      <point x="837.501" y="-495.743"/>
      <point x="842.145" y="-492.402"/>
      <point x="850" y="-497" type="curve" smooth="yes"/>
      <point x="891" y="-521" type="line" smooth="yes"/>
      <point x="895.783" y="-527.457"/>
      <point x="887.97" y="-540.337"/>
      <point x="882" y="-553" type="curve" smooth="yes"/>
      <point x="849" y="-623"/>
      <point x="750" y="-740.8"/>
      <point x="590" y="-740.8" type="curve" smooth="yes"/>
      <point x="424.634" y="-740.8"/>
      <point x="284.134" y="-646.298"/>
      <point x="285" y="-435" type="curve" smooth="yes"/>
      <point x="285.91" y="-212.993"/>
      <point x="457" y="-115"/>
      <point x="610" y="-115" type="curve" smooth="yes"/>
      <point x="840" y="-115"/>
      <point x="943" y="-350"/>
    </contour>
  </outline>
</glyph>
<glyph name="uni199F" format="1">
  <advance width="1735"/>
  <unicode hex="199F"/>
  <outline>
    <contour>
      <point x="1625" y="450" type="curve" smooth="yes"/>
      <point x="1625" y="158"/>
      <point x="1474" y="-20"/>
      <point x="1227" y="-20" type="curve" smooth="yes"/>
      <point x="939" y="-20"/>
      <point x="844.126" y="178.169"/>
      <point x="802" y="455" type="curve" smooth="yes"/>
      <point x="774" y="639"/>
      <point x="711" y="805"/>
      <point x="522" y="805" type="curve" smooth="yes"/>
      <point x="316" y="805"/>
      <point x="235" y="610"/>
      <point x="235" y="420" type="curve" smooth="yes"/>
      <point x="235" y="230"/>
      <point x="325" y="105"/>
      <point x="485" y="105" type="curve" smooth="yes"/>
      <point x="496" y="105"/>
      <point x="511" y="106"/>
      <point x="520" y="108" type="curve" smooth="yes"/>
      <point x="531" y="110"/>
      <point x="543" y="110"/>
      <point x="547" y="102" type="curve" smooth="yes"/>
      <point x="593" y="23" type="line" smooth="yes"/>
      <point x="598" y="14"/>
      <point x="595" y="2"/>
      <point x="585" y="-2" type="curve" smooth="yes"/>
      <point x="554" y="-15"/>
      <point x="517" y="-20"/>
      <point x="485" y="-20" type="curve" smooth="yes"/>
      <point x="240" y="-19"/>
      <point x="110" y="158"/>
      <point x="110" y="420" type="curve" smooth="yes"/>
      <point x="110" y="672"/>
      <point x="225" y="930"/>
      <point x="522" y="930" type="curve" smooth="yes"/>
      <point x="823" y="930"/>
      <point x="896" y="689"/>
      <point x="932" y="455" type="curve" smooth="yes"/>
      <point x="965" y="238"/>
      <point x="1041" y="105"/>
      <point x="1227" y="105" type="curve" smooth="yes"/>
      <point x="1373" y="105"/>
      <point x="1500" y="220"/>
      <point x="1500" y="450" type="curve" smooth="yes"/>
      <point x="1500" y="640"/>
      <point x="1430" y="805"/>
      <point x="1270" y="805" type="curve" smooth="yes"/>
      <point x="1259" y="805"/>
      <point x="1244" y="804"/>
      <point x="1235" y="802" type="curve" smooth="yes"/>
      <point x="1224" y="800"/>
      <point x="1212" y="800"/>
      <point x="1208" y="808" type="curve" smooth="yes"/>
      <point x="1162" y="887" type="line" smooth="yes"/>
      <point x="1157" y="896"/>
      <point x="1160" y="908"/>
      <point x="1170" y="912" type="curve" smooth="yes"/>
      <point x="1201" y="925"/>
      <point x="1238" y="930"/>
      <point x="1270" y="930" type="curve" smooth="yes"/>
      <point x="1515" y="929"/>
      <point x="1625" y="722"/>
    </contour>
  </outline>
</glyph>
<glyph name="uni19A2" format="1">
  <advance width="1180"/>
  <unicode hex="19A2"/>
  <outline>
    <contour>
      <point x="590" y="-20" type="curve" smooth="yes"/>
      <point x="312" y="-20"/>
      <point x="110" y="175"/>
      <point x="110" y="480" type="curve" smooth="yes"/>
      <point x="110" y="687"/>
      <point x="198" y="829"/>
      <point x="335" y="926" type="curve" smooth="yes"/>
      <point x="338.747" y="928.623"/>
      <point x="343" y="930"/>
      <point x="347" y="930" type="curve" smooth="yes"/>
      <point x="354" y="930"/>
      <point x="361.998" y="926.253"/>
      <point x="367" y="920" type="curve" smooth="yes"/>
      <point x="416" y="856" type="line" smooth="yes"/>
      <point x="424" y="846"/>
      <point x="420" y="832"/>
      <point x="410" y="826" type="curve" smooth="yes"/>
      <point x="313" y="765"/>
      <point x="235" y="651"/>
      <point x="235" y="480" type="curve" smooth="yes"/>
      <point x="235" y="283"/>
      <point x="356" y="105"/>
      <point x="590" y="105" type="curve" smooth="yes"/>
      <point x="824" y="105"/>
      <point x="945" y="283"/>
      <point x="945" y="480" type="curve" smooth="yes"/>
      <point x="945" y="651"/>
      <point x="872" y="760"/>
      <point x="775" y="821" type="curve" smooth="yes"/>
      <point x="765" y="827"/>
      <point x="761" y="841"/>
      <point x="769" y="851" type="curve"/>
      <point x="813" y="920" type="line"/>
      <point x="817.956" y="926.195"/>
      <point x="825" y="930"/>
      <point x="832" y="930" type="curve" smooth="yes"/>
      <point x="836" y="930"/>
      <point x="841.195" y="928.663"/>
      <point x="845" y="926" type="curve" smooth="yes"/>
      <point x="982" y="829"/>
      <point x="1070" y="687"/>
      <point x="1070" y="480" type="curve" smooth="yes"/>
      <point x="1070" y="175"/>
      <point x="868" y="-20"/>
    </contour>
  </outline>
</glyph>
<glyph name="uni19A5" format="1">
  <advance width="1180"/>
  <unicode hex="19A5"/>
  <outline>
    <contour>
      <point x="255" y="1110" type="curve" smooth="yes"/>
      <point x="245" y="1110"/>
      <point x="235" y="1117"/>
      <point x="235" y="1128" type="curve" smooth="yes"/>
      <point x="235" y="1198" type="line" smooth="yes"/>
      <point x="235" y="1207"/>
      <point x="245" y="1215"/>
      <point x="255" y="1215" type="curve" smooth="yes"/>
      <point x="362" y="1215"/>
      <point x="549" y="1334"/>
      <point x="549" y="1505" type="curve" smooth="yes"/>
      <point x="549" y="1515"/>
      <point x="558" y="1525"/>
      <point x="567" y="1525" type="curve" smooth="yes"/>
      <point x="617" y="1525" type="line" smooth="yes"/>
      <point x="628" y="1525"/>
      <point x="635" y="1515"/>
      <point x="635" y="1505" type="curve" smooth="yes"/>
      <point x="635" y="1310"/>
      <point x="431" y="1110"/>
    </contour>
    <contour>
      <point x="929" y="1110" type="curve" smooth="yes"/>
      <point x="753" y="1110"/>
      <point x="549" y="1310"/>
      <point x="549" y="1505" type="curve" smooth="yes"/>
      <point x="549" y="1515"/>
      <point x="556" y="1525"/>
      <point x="567" y="1525" type="curve" smooth="yes"/>
      <point x="617" y="1525" type="line" smooth="yes"/>
      <point x="626" y="1525"/>
      <point x="635" y="1515"/>
      <point x="635" y="1505" type="curve" smooth="yes"/>
      <point x="635" y="1334"/>
      <point x="822" y="1215"/>
      <point x="929" y="1215" type="curve" smooth="yes"/>
      <point x="939" y="1215"/>
      <point x="949" y="1207"/>
      <point x="949" y="1198" type="curve" smooth="yes"/>
      <point x="949" y="1128" type="line" smooth="yes"/>
      <point x="949" y="1117"/>
      <point x="939" y="1110"/>
    </contour>
    <contour>
      <point x="590" y="-20" type="curve" smooth="yes"/>
      <point x="312" y="-20"/>
      <point x="110" y="175"/>
      <point x="110" y="480" type="curve" smooth="yes"/>
      <point x="110" y="687"/>
      <point x="198" y="829"/>
      <point x="335" y="926" type="curve" smooth="yes"/>
      <point x="338.747" y="928.623"/>
      <point x="343" y="930"/>
      <point x="347" y="930" type="curve" smooth="yes"/>
      <point x="354" y="930"/>
      <point x="361.998" y="926.253"/>
      <point x="367" y="920" type="curve" smooth="yes"/>
      <point x="416" y="856" type="line" smooth="yes"/>
      <point x="424" y="846"/>
      <point x="420" y="832"/>
      <point x="410" y="826" type="curve" smooth="yes"/>
      <point x="313" y="765"/>
      <point x="235" y="651"/>
      <point x="235" y="480" type="curve" smooth="yes"/>
      <point x="235" y="283"/>
      <point x="356" y="105"/>
      <point x="590" y="105" type="curve" smooth="yes"/>
      <point x="824" y="105"/>
      <point x="945" y="283"/>
      <point x="945" y="480" type="curve" smooth="yes"/>
      <point x="945" y="651"/>
      <point x="872" y="760"/>
      <point x="775" y="821" type="curve" smooth="yes"/>
      <point x="765" y="827"/>
      <point x="761" y="841"/>
      <point x="769" y="851" type="curve"/>
      <point x="813" y="920" type="line"/>
      <point x="817.956" y="926.195"/>
      <point x="825" y="930"/>
      <point x="832" y="930" type="curve" smooth="yes"/>
      <point x="836" y="930"/>
      <point x="841.195" y="928.663"/>
      <point x="845" y="926" type="curve" smooth="yes"/>
      <point x="982" y="829"/>
      <point x="1070" y="687"/>
      <point x="1070" y="480" type="curve" smooth="yes"/>
      <point x="1070" y="175"/>
      <point x="868" y="-20"/>
    </contour>
  </outline>
</glyph>
<glyph name="uni19AB" format="1">
  <advance width="1250"/>
  <unicode hex="19AB"/>
  <outline>
    <contour>
      <point x="744.5" y="69.5" type="curve" smooth="yes"/>
      <point x="744" y="155" type="line" smooth="yes"/>
      <point x="933" y="156.5"/>
      <point x="1057" y="102.5"/>
      <point x="1160.02" y="-21.9873" type="curve" smooth="yes"/>
      <point x="1166.42" y="-29.7295"/>
      <point x="1164.6" y="-36.8213"/>
      <point x="1156.97" y="-41.6016" type="curve" smooth="yes"/>
      <point x="1120.54" y="-64.4404" type="line" smooth="yes"/>
      <point x="1112.91" y="-69.2207"/>
      <point x="1104.45" y="-69.6572"/>
      <point x="1096.47" y="-61.8223" type="curve" smooth="yes"/>
      <point x="1003" y="30"/>
      <point x="897" y="68"/>
    </contour>
    <contour>
      <point x="655" y="1555" type="curve" smooth="yes"/>
      <point x="358" y="1555"/>
      <point x="260" y="1308.32"/>
      <point x="260" y="1050" type="curve" smooth="yes"/>
      <point x="260" y="907.318"/>
      <point x="270" y="795.318"/>
      <point x="283" y="717" type="curve"/>
      <point x="167" y="604" type="line"/>
      <point x="152" y="705.318"/>
      <point x="135" y="860.028"/>
      <point x="135" y="1050" type="curve" smooth="yes"/>
      <point x="135" y="1362.32"/>
      <point x="268" y="1650"/>
      <point x="655" y="1650" type="curve" smooth="yes"/>
      <point x="882" y="1650"/>
      <point x="1041" y="1504"/>
      <point x="1081" y="1382" type="curve" smooth="yes"/>
      <point x="1084" y="1372"/>
      <point x="1077" y="1360"/>
      <point x="1067" y="1356" type="curve" smooth="yes"/>
      <point x="1035" y="1345" type="line" smooth="yes"/>
      <point x="1027" y="1342"/>
      <point x="1014" y="1350"/>
      <point x="1010" y="1360" type="curve" smooth="yes"/>
      <point x="965" y="1460"/>
      <point x="851" y="1555"/>
    </contour>
    <contour>
      <point x="1140" y="480" type="curve" smooth="yes"/>
      <point x="1140" y="288"/>
      <point x="1007" y="71"/>
      <point x="742" y="70" type="curve" smooth="yes"/>
      <point x="732" y="69.9619"/>
      <point x="722" y="78"/>
      <point x="722" y="87" type="curve" smooth="yes"/>
      <point x="722" y="137" type="line" smooth="yes"/>
      <point x="722" y="148"/>
      <point x="732" y="155"/>
      <point x="742" y="155" type="curve" smooth="yes"/>
      <point x="892" y="155"/>
      <point x="1015" y="270"/>
      <point x="1015" y="480" type="curve" smooth="yes"/>
      <point x="1015" y="677"/>
      <point x="887" y="805"/>
      <point x="635" y="805" type="curve" smooth="yes"/>
      <point x="386" y="805"/>
      <point x="235" y="622"/>
      <point x="235" y="420" type="curve" smooth="yes"/>
      <point x="235" y="269"/>
      <point x="308" y="166"/>
      <point x="415" y="85" type="curve" smooth="yes"/>
      <point x="425" y="78"/>
      <point x="428" y="66"/>
      <point x="421" y="55" type="curve"/>
      <point x="367" y="-14" type="line"/>
      <point x="360" y="-25"/>
      <point x="345" y="-28"/>
      <point x="335" y="-20" type="curve" smooth="yes"/>
      <point x="188" y="87"/>
      <point x="110" y="223"/>
      <point x="110" y="420" type="curve" smooth="yes"/>
      <point x="110" y="725"/>
      <point x="347" y="930"/>
      <point x="635" y="930" type="curve" smooth="yes"/>
      <point x="949" y="930"/>
      <point x="1140" y="766"/>
    </contour>
    <component base="dailuemodifierw" xOffset="1246"/>
  </outline>
</glyph>
<glyph name="uni19B5" format="1">
  <advance width="1289"/>
  <unicode hex="19B5"/>
  <outline>
    <contour>
      <point x="875" y="140" type="curve" smooth="yes"/>
      <point x="875" y="261"/>
      <point x="935" y="384"/>
      <point x="935" y="510" type="curve" smooth="yes"/>
      <point x="935" y="670"/>
      <point x="841" y="805"/>
      <point x="605" y="805" type="curve" smooth="yes"/>
      <point x="395" y="805"/>
      <point x="245" y="638"/>
      <point x="245" y="395" type="curve" smooth="yes"/>
      <point x="245" y="236"/>
      <point x="337" y="105"/>
      <point x="455" y="105" type="curve" smooth="yes"/>
      <point x="478" y="105"/>
      <point x="497" y="112"/>
      <point x="520" y="123" type="curve" smooth="yes"/>
      <point x="529" y="127"/>
      <point x="543" y="125"/>
      <point x="547" y="117" type="curve" smooth="yes"/>
      <point x="593" y="38" type="line" smooth="yes"/>
      <point x="598" y="29"/>
      <point x="595" y="18"/>
      <point x="585" y="13" type="curve" smooth="yes"/>
      <point x="541" y="-9"/>
      <point x="497" y="-20"/>
      <point x="455" y="-20" type="curve" smooth="yes"/>
      <point x="253" y="-20"/>
      <point x="120" y="159.992"/>
      <point x="120" y="395" type="curve" smooth="yes"/>
      <point x="120" y="681"/>
      <point x="290" y="930"/>
      <point x="605" y="930" type="curve" smooth="yes"/>
      <point x="932" y="930"/>
      <point x="1060" y="732"/>
      <point x="1060" y="510" type="curve" smooth="yes"/>
      <point x="1060" y="369"/>
      <point x="990" y="239"/>
      <point x="990" y="150" type="curve" smooth="yes"/>
      <point x="990" y="111"/>
      <point x="1016" y="80"/>
      <point x="1050" y="80" type="curve" smooth="yes"/>
      <point x="1098" y="80"/>
      <point x="1142" y="137"/>
      <point x="1150" y="185" type="curve" smooth="yes"/>
      <point x="1152" y="194"/>
      <point x="1167" y="196"/>
      <point x="1174" y="190" type="curve" smooth="yes"/>
      <point x="1214" y="151" type="line" smooth="yes"/>
      <point x="1220" y="146"/>
      <point x="1218" y="135"/>
      <point x="1215" y="125" type="curve" smooth="yes"/>
      <point x="1196" y="49"/>
      <point x="1140" y="-20"/>
      <point x="1050" y="-20" type="curve" smooth="yes"/>
      <point x="944" y="-20"/>
      <point x="875" y="52"/>
    </contour>
  </outline>
</glyph>
<glyph name="uni19B8" format="1">
  <advance width="1200"/>
  <unicode hex="19B8"/>
  <outline>
    <contour>
      <point x="1121" y="200" type="curve" smooth="yes"/>
      <point x="1097" y="75"/>
      <point x="991" y="-19"/>
      <point x="856" y="-20" type="curve" smooth="yes"/>
      <point x="607" y="-22"/>
      <point x="366" y="322"/>
      <point x="366" y="590" type="curve" smooth="yes"/>
      <point x="366" y="803"/>
      <point x="430" y="930"/>
      <point x="601" y="930" type="curve"/>
      <point x="601" y="805" type="line"/>
      <point x="526" y="805"/>
      <point x="491" y="719"/>
      <point x="491" y="575" type="curve" smooth="yes"/>
      <point x="491" y="382"/>
      <point x="664" y="93"/>
      <point x="856" y="95" type="curve" smooth="yes"/>
      <point x="940" y="96"/>
      <point x="999" y="167"/>
      <point x="1011" y="260" type="curve" smooth="yes"/>
      <point x="1012" y="271"/>
      <point x="1030" y="273"/>
      <point x="1037" y="269" type="curve" smooth="yes"/>
      <point x="1115" y="224" type="line" smooth="yes"/>
      <point x="1124" y="218"/>
      <point x="1123" y="209"/>
    </contour>
    <contour>
      <point x="81" y="200" type="curve" smooth="yes"/>
      <point x="80" y="209"/>
      <point x="78" y="218"/>
      <point x="87" y="224" type="curve" smooth="yes"/>
      <point x="165" y="269" type="line" smooth="yes"/>
      <point x="172" y="273"/>
      <point x="190" y="271"/>
      <point x="191" y="260" type="curve" smooth="yes"/>
      <point x="203" y="167"/>
      <point x="262" y="96"/>
      <point x="346" y="95" type="curve" smooth="yes"/>
      <point x="538" y="93"/>
      <point x="711" y="382"/>
      <point x="711" y="575" type="curve" smooth="yes"/>
      <point x="711" y="719"/>
      <point x="676" y="804"/>
      <point x="601" y="805" type="curve"/>
      <point x="601" y="930" type="line"/>
      <point x="772" y="930"/>
      <point x="836" y="803"/>
      <point x="836" y="590" type="curve" smooth="yes"/>
      <point x="836" y="322"/>
      <point x="595" y="-22"/>
      <point x="346" y="-20" type="curve" smooth="yes"/>
      <point x="211" y="-19"/>
      <point x="105" y="75"/>
    </contour>
  </outline>
</glyph>
<glyph name="uni19B9" format="1">
  <advance width="1145"/>
  <unicode hex="19B9"/>
  <outline>
    <contour>
      <point x="575" y="1650" type="curve" smooth="yes"/>
      <point x="882" y="1650"/>
      <point x="1015" y="1333"/>
      <point x="1015" y="810" type="curve" smooth="yes"/>
      <point x="1015" y="307"/>
      <point x="892" y="-20"/>
      <point x="575" y="-20" type="curve" smooth="yes"/>
      <point x="248" y="-20"/>
      <point x="130" y="308"/>
      <point x="130" y="810" type="curve" smooth="yes"/>
      <point x="130" y="1322"/>
      <point x="258" y="1650"/>
    </contour>
    <contour>
      <point x="575" y="1540" type="curve" smooth="yes"/>
      <point x="339" y="1540"/>
      <point x="255" y="1251"/>
      <point x="255" y="810" type="curve" smooth="yes"/>
      <point x="255" y="370"/>
      <point x="349" y="105"/>
      <point x="575" y="105" type="curve" smooth="yes"/>
      <point x="802" y="105"/>
      <point x="890" y="380"/>
      <point x="890" y="810" type="curve" smooth="yes"/>
      <point x="890" y="1251"/>
      <point x="792" y="1540"/>
    </contour>
    <contour>
      <point x="895" y="615" type="line"/>
      <point x="854" y="760"/>
      <point x="722" y="825"/>
      <point x="575" y="825" type="curve" smooth="yes"/>
      <point x="419" y="825"/>
      <point x="291" y="752"/>
      <point x="245" y="615" type="curve"/>
      <point x="220" y="755" type="line"/>
      <point x="280" y="866"/>
      <point x="407" y="930"/>
      <point x="575" y="930" type="curve" smooth="yes"/>
      <point x="729" y="930"/>
      <point x="851" y="868"/>
      <point x="915" y="765" type="curve"/>
    </contour>
    <contour>
      <point x="520" y="905" type="line"/>
      <point x="520" y="1160" type="line" smooth="yes"/>
      <point x="520" y="1352"/>
      <point x="619" y="1519"/>
      <point x="782" y="1549" type="curve"/>
      <point x="848" y="1462" type="line"/>
      <point x="706" y="1446"/>
      <point x="625" y="1314"/>
      <point x="625" y="1160" type="curve" smooth="yes"/>
      <point x="625" y="905" type="line"/>
    </contour>
  </outline>
</glyph>
<glyph name="uni19BB" format="1">
  <advance width="1691"/>
  <unicode hex="19BB"/>
  <outline>
    <contour>
      <point x="500" y="-20" type="curve" smooth="yes"/>
      <point x="353" y="-20"/>
      <point x="217" y="33"/>
      <point x="110" y="175" type="curve" smooth="yes"/>
      <point x="102" y="185"/>
      <point x="105" y="200"/>
      <point x="116" y="207" type="curve" smooth="yes"/>
      <point x="185" y="251" type="line" smooth="yes"/>
      <point x="196" y="258"/>
      <point x="207" y="255"/>
      <point x="215" y="245" type="curve" smooth="yes"/>
      <point x="296" y="143"/>
      <point x="379" y="105"/>
      <point x="500" y="105" type="curve" smooth="yes"/>
      <point x="707" y="105"/>
      <point x="855" y="228"/>
      <point x="855" y="450" type="curve" smooth="yes"/>
      <point x="855" y="679"/>
      <point x="692" y="805"/>
      <point x="510" y="805" type="curve" smooth="yes"/>
      <point x="379" y="805"/>
      <point x="296" y="742"/>
      <point x="215" y="635" type="curve" smooth="yes"/>
      <point x="208" y="625"/>
      <point x="196" y="622"/>
      <point x="185" y="629" type="curve" smooth="yes"/>
      <point x="116" y="673" type="line" smooth="yes"/>
      <point x="105" y="680"/>
      <point x="102" y="695"/>
      <point x="110" y="705" type="curve" smooth="yes"/>
      <point x="227" y="852"/>
      <point x="343" y="930"/>
      <point x="510" y="930" type="curve" smooth="yes"/>
      <point x="805" y="930"/>
      <point x="980" y="718"/>
      <point x="980" y="450" type="curve" smooth="yes"/>
      <point x="980" y="176"/>
      <point x="796" y="-20"/>
    </contour>
    <contour>
      <point x="1541" y="890" type="curve" smooth="yes"/>
      <point x="1541" y="-305" type="line" smooth="yes"/>
      <point x="1541" y="-563"/>
      <point x="1424" y="-740"/>
      <point x="1176" y="-740" type="curve" smooth="yes"/>
      <point x="918" y="-740"/>
      <point x="831" y="-563"/>
      <point x="831" y="-305" type="curve" smooth="yes"/>
      <point x="831" y="148" type="line"/>
      <point x="956" y="392" type="line"/>
      <point x="956" y="-305" type="line" smooth="yes"/>
      <point x="956" y="-497"/>
      <point x="1017" y="-625"/>
      <point x="1176" y="-625" type="curve" smooth="yes"/>
      <point x="1335" y="-625"/>
      <point x="1416" y="-497"/>
      <point x="1416" y="-305" type="curve" smooth="yes"/>
      <point x="1416" y="890" type="line" smooth="yes"/>
      <point x="1416" y="900"/>
      <point x="1423" y="910"/>
      <point x="1434" y="910" type="curve" smooth="yes"/>
      <point x="1524" y="910" type="line" smooth="yes"/>
      <point x="1533" y="910"/>
      <point x="1541" y="900"/>
    </contour>
  </outline>
</glyph>
<glyph name="uni19BE" format="1">
  <advance width="1634"/>
  <unicode hex="19BE"/>
  <outline>
    <contour>
      <point x="855" y="95" type="curve"/>
      <point x="1112" y="95"/>
      <point x="1108" y="485"/>
      <point x="1069" y="830" type="curve" smooth="yes"/>
      <point x="1015" y="1310"/>
      <point x="1047" y="1650"/>
      <point x="1324" y="1650" type="curve" smooth="yes"/>
      <point x="1551" y="1650"/>
      <point x="1599" y="1460"/>
      <point x="1549" y="1230" type="curve" smooth="yes"/>
      <point x="1547" y="1220"/>
      <point x="1541" y="1210"/>
      <point x="1532" y="1210" type="curve" smooth="yes"/>
      <point x="1492" y="1211" type="line" smooth="yes"/>
      <point x="1481" y="1211"/>
      <point x="1474" y="1220"/>
      <point x="1474" y="1230" type="curve" smooth="yes"/>
      <point x="1474" y="1389"/>
      <point x="1463" y="1555"/>
      <point x="1324" y="1555" type="curve" smooth="yes"/>
      <point x="1158" y="1555"/>
      <point x="1145" y="1244"/>
      <point x="1194" y="830" type="curve" smooth="yes"/>
      <point x="1246" y="386"/>
      <point x="1205" y="-20"/>
      <point x="855" y="-20" type="curve"/>
      <point x="606" y="-22"/>
      <point x="365" y="322"/>
      <point x="365" y="590" type="curve" smooth="yes"/>
      <point x="365" y="793"/>
      <point x="419" y="930"/>
      <point x="600" y="930" type="curve"/>
      <point x="600" y="805" type="line"/>
      <point x="515" y="805"/>
      <point x="490" y="699"/>
      <point x="490" y="575" type="curve" smooth="yes"/>
      <point x="490" y="382"/>
      <point x="663" y="93"/>
    </contour>
    <contour>
      <point x="80" y="200" type="curve" smooth="yes"/>
      <point x="79" y="209"/>
      <point x="77" y="218"/>
      <point x="86" y="224" type="curve" smooth="yes"/>
      <point x="164" y="269" type="line" smooth="yes"/>
      <point x="171" y="273"/>
      <point x="189" y="271"/>
      <point x="190" y="260" type="curve" smooth="yes"/>
      <point x="202" y="167"/>
      <point x="261" y="96"/>
      <point x="345" y="95" type="curve" smooth="yes"/>
      <point x="537" y="93"/>
      <point x="710" y="382"/>
      <point x="710" y="575" type="curve" smooth="yes"/>
      <point x="710" y="699"/>
      <point x="685" y="805"/>
      <point x="600" y="805" type="curve"/>
      <point x="600" y="930" type="line"/>
      <point x="781" y="930"/>
      <point x="835" y="793"/>
      <point x="835" y="590" type="curve" smooth="yes"/>
      <point x="835" y="322"/>
      <point x="594" y="-22"/>
      <point x="345" y="-20" type="curve" smooth="yes"/>
      <point x="210" y="-19"/>
      <point x="104" y="75"/>
    </contour>
  </outline>
</glyph>
<glyph name="uni19BF" format="1">
  <advance width="1730"/>
  <unicode hex="19BF"/>
  <outline>
    <contour>
      <point x="575" y="1650" type="curve" smooth="yes"/>
      <point x="882" y="1650"/>
      <point x="1015" y="1333"/>
      <point x="1015" y="810" type="curve" smooth="yes"/>
      <point x="1015" y="307"/>
      <point x="892" y="-20"/>
      <point x="575" y="-20" type="curve" smooth="yes"/>
      <point x="248" y="-20"/>
      <point x="130" y="308"/>
      <point x="130" y="810" type="curve" smooth="yes"/>
      <point x="130" y="1322"/>
      <point x="258" y="1650"/>
    </contour>
    <contour>
      <point x="575" y="1540" type="curve" smooth="yes"/>
      <point x="339" y="1540"/>
      <point x="255" y="1251"/>
      <point x="255" y="810" type="curve" smooth="yes"/>
      <point x="255" y="370"/>
      <point x="349" y="105"/>
      <point x="575" y="105" type="curve" smooth="yes"/>
      <point x="802" y="105"/>
      <point x="890" y="380"/>
      <point x="890" y="810" type="curve" smooth="yes"/>
      <point x="890" y="1251"/>
      <point x="792" y="1540"/>
    </contour>
    <contour>
      <point x="895" y="615" type="line"/>
      <point x="854" y="760"/>
      <point x="722" y="825"/>
      <point x="575" y="825" type="curve" smooth="yes"/>
      <point x="419" y="825"/>
      <point x="291" y="752"/>
      <point x="245" y="615" type="curve"/>
      <point x="220" y="755" type="line"/>
      <point x="280" y="866"/>
      <point x="407" y="930"/>
      <point x="575" y="930" type="curve" smooth="yes"/>
      <point x="729" y="930"/>
      <point x="851" y="868"/>
      <point x="915" y="765" type="curve"/>
    </contour>
    <contour>
      <point x="520" y="905" type="line"/>
      <point x="520" y="1160" type="line" smooth="yes"/>
      <point x="520" y="1352"/>
      <point x="619" y="1519"/>
      <point x="782" y="1549" type="curve"/>
      <point x="848" y="1462" type="line"/>
      <point x="706" y="1446"/>
      <point x="625" y="1314"/>
      <point x="625" y="1160" type="curve" smooth="yes"/>
      <point x="625" y="905" type="line"/>
    </contour>
    <contour>
      <point x="1580" y="890" type="curve" smooth="yes"/>
      <point x="1580" y="-305" type="line" smooth="yes"/>
      <point x="1580" y="-563"/>
      <point x="1458" y="-740"/>
      <point x="1210" y="-740" type="curve" smooth="yes"/>
      <point x="952" y="-740"/>
      <point x="860" y="-563"/>
      <point x="860" y="-305" type="curve" smooth="yes"/>
      <point x="860" y="291" type="line"/>
      <point x="985" y="770" type="line"/>
      <point x="985" y="-305" type="line" smooth="yes"/>
      <point x="985" y="-497"/>
      <point x="1051" y="-625"/>
      <point x="1210" y="-625" type="curve" smooth="yes"/>
      <point x="1369" y="-625"/>
      <point x="1455" y="-497"/>
      <point x="1455" y="-305" type="curve" smooth="yes"/>
      <point x="1455" y="890" type="line" smooth="yes"/>
      <point x="1455" y="900"/>
      <point x="1462" y="910"/>
      <point x="1473" y="910" type="curve" smooth="yes"/>
      <point x="1563" y="910" type="line" smooth="yes"/>
      <point x="1572" y="910"/>
      <point x="1580" y="900"/>
    </contour>
  </outline>
</glyph>
<glyph name="uni19C1" format="1">
  <advance width="1185"/>
  <unicode hex="19C1"/>
  <outline>
    <contour>
      <point x="595" y="930" type="curve" smooth="yes"/>
      <point x="902" y="930"/>
      <point x="1075" y="733"/>
      <point x="1075" y="450" type="curve" smooth="yes"/>
      <point x="1075" y="187"/>
      <point x="912" y="-20"/>
      <point x="595" y="-20" type="curve" smooth="yes"/>
      <point x="268" y="-20"/>
      <point x="110" y="188"/>
      <point x="110" y="450" type="curve" smooth="yes"/>
      <point x="110" y="722"/>
      <point x="278" y="930"/>
    </contour>
    <contour>
      <point x="595" y="805" type="curve" smooth="yes"/>
      <point x="359" y="805"/>
      <point x="235" y="651"/>
      <point x="235" y="450" type="curve" smooth="yes"/>
      <point x="235" y="250"/>
      <point x="369" y="105"/>
      <point x="595" y="105" type="curve" smooth="yes"/>
      <point x="822" y="105"/>
      <point x="950" y="260"/>
      <point x="950" y="450" type="curve" smooth="yes"/>
      <point x="950" y="651"/>
      <point x="812" y="805"/>
    </contour>
    <contour>
      <point x="1055" y="-525" type="curve"/>
      <point x="930" y="-525" type="line"/>
      <point x="930" y="-460"/>
      <point x="886" y="-420"/>
      <point x="820" y="-420" type="curve" smooth="yes"/>
      <point x="754" y="-420"/>
      <point x="715" y="-460"/>
      <point x="715" y="-525" type="curve" smooth="yes"/>
      <point x="715" y="-590"/>
      <point x="754" y="-635"/>
      <point x="820" y="-635" type="curve" smooth="yes"/>
      <point x="886" y="-635"/>
      <point x="930" y="-590"/>
      <point x="930" y="-525" type="curve" smooth="yes"/>
      <point x="930" y="234" type="line"/>
      <point x="1055" y="470" type="line"/>
      <point x="1055" y="-525" type="line" smooth="yes"/>
      <point x="1055" y="-652"/>
      <point x="949" y="-740"/>
      <point x="820" y="-740" type="curve" smooth="yes"/>
      <point x="701" y="-740"/>
      <point x="610" y="-653"/>
      <point x="610" y="-525" type="curve" smooth="yes"/>
      <point x="610" y="-394"/>
      <point x="700" y="-315"/>
      <point x="810" y="-315" type="curve" smooth="yes"/>
      <point x="924" y="-315"/>
      <point x="1035" y="-450"/>
    </contour>
  </outline>
</glyph>
<glyph name="uni19D3" format="1">
  <advance width="1145"/>
  <unicode hex="19D3"/>
  <outline>
    <contour>
      <point x="550" y="105" type="curve" smooth="yes"/>
      <point x="727" y="105"/>
      <point x="915" y="208"/>
      <point x="915" y="450" type="curve" smooth="yes"/>
      <point x="915" y="679"/>
      <point x="752" y="805"/>
      <point x="540" y="805" type="curve" smooth="yes"/>
      <point x="399" y="805"/>
      <point x="301" y="752"/>
      <point x="220" y="635" type="curve" smooth="yes"/>
      <point x="213.146" y="625.1"/>
      <point x="200" y="621"/>
      <point x="190" y="629" type="curve"/>
      <point x="121" y="673" type="line"/>
      <point x="111" y="681"/>
      <point x="107.788" y="694.418"/>
      <point x="115" y="705" type="curve" smooth="yes"/>
      <point x="222" y="862"/>
      <point x="353" y="930"/>
      <point x="540" y="930" type="curve" smooth="yes"/>
      <point x="845" y="930"/>
      <point x="1040" y="738"/>
      <point x="1040" y="450" type="curve" smooth="yes"/>
      <point x="1040" y="146"/>
      <point x="816" y="-20"/>
      <point x="550" y="-20" type="curve" smooth="yes"/>
      <point x="494.416" y="-20"/>
      <point x="446.416" y="-8"/>
      <point x="376" y="18" type="curve" smooth="yes"/>
      <point x="366.433" y="21.5326"/>
      <point x="364.952" y="5.95842"/>
      <point x="371" y="-1" type="curve" smooth="yes"/>
      <point x="514.416" y="-166"/>
      <point x="786.416" y="-430"/>
      <point x="1070" y="-618" type="curve" smooth="yes"/>
      <point x="1077.45" y="-622.942"/>
      <point x="1082" y="-636"/>
      <point x="1075" y="-646" type="curve"/>
      <point x="997" y="-735" type="line" smooth="yes"/>
      <point x="991" y="-741"/>
      <point x="977.695" y="-739.402"/>
      <point x="971" y="-734" type="curve" smooth="yes"/>
      <point x="750.416" y="-556"/>
      <point x="416.416" y="-218"/>
      <point x="121" y="112" type="curve" smooth="yes"/>
      <point x="114.33" y="119.451"/>
      <point x="107" y="132"/>
      <point x="115" y="141" type="curve" smooth="yes"/>
      <point x="161" y="196" type="line" smooth="yes"/>
      <point x="166" y="203"/>
      <point x="178.718" y="204.594"/>
      <point x="189" y="199" type="curve" smooth="yes"/>
      <point x="286.416" y="146"/>
      <point x="437" y="104"/>
    </contour>
  </outline>
</glyph>
<glyph name="uni19D9" format="1">
  <advance width="1126"/>
  <unicode hex="19D9"/>
  <outline>
    <contour>
      <point x="625" y="-635" type="curve" smooth="yes"/>
      <point x="911" y="-635"/>
      <point x="975" y="-440"/>
      <point x="1020" y="-290" type="curve" smooth="yes"/>
      <point x="1023" y="-279"/>
      <point x="1037" y="-272"/>
      <point x="1045" y="-275" type="curve" smooth="yes"/>
      <point x="1077" y="-286" type="line" smooth="yes"/>
      <point x="1087" y="-290"/>
      <point x="1093" y="-302"/>
      <point x="1091" y="-312" type="curve" smooth="yes"/>
      <point x="1051" y="-484"/>
      <point x="942" y="-740"/>
      <point x="625" y="-740" type="curve" smooth="yes"/>
      <point x="238" y="-740"/>
      <point x="110" y="-422"/>
      <point x="110" y="130" type="curve" smooth="yes"/>
      <point x="110" y="673"/>
      <point x="291" y="930"/>
      <point x="570" y="930" type="curve" smooth="yes"/>
      <point x="877" y="930"/>
      <point x="950" y="702"/>
      <point x="950" y="520" type="curve" smooth="yes"/>
      <point x="950" y="348"/>
      <point x="870" y="151"/>
      <point x="625" y="150" type="curve" smooth="yes"/>
      <point x="568" y="150"/>
      <point x="506" y="166"/>
      <point x="455" y="195" type="curve" smooth="yes"/>
      <point x="446" y="200"/>
      <point x="442" y="211"/>
      <point x="447" y="220" type="curve" smooth="yes"/>
      <point x="493" y="299" type="line" smooth="yes"/>
      <point x="497" y="307"/>
      <point x="511" y="310"/>
      <point x="520" y="305" type="curve" smooth="yes"/>
      <point x="546" y="290"/>
      <point x="585" y="275"/>
      <point x="625" y="275" type="curve" smooth="yes"/>
      <point x="785" y="275"/>
      <point x="825" y="420"/>
      <point x="825" y="520" type="curve" smooth="yes"/>
      <point x="825" y="640"/>
      <point x="776" y="805"/>
      <point x="570" y="805" type="curve" smooth="yes"/>
      <point x="358" y="805"/>
      <point x="235" y="593"/>
      <point x="235" y="130" type="curve" smooth="yes"/>
      <point x="235" y="-360"/>
      <point x="359" y="-635"/>
    </contour>
  </outline>
</glyph>
<glyph name="dailuemodifierfinal" format="1">
  <advance width="0"/>
  <outline>
    <contour>
      <point x="-130" y="-525" type="curve"/>
      <point x="-254" y="-525" type="line"/>
      <point x="-254" y="-460"/>
      <point x="-298" y="-420"/>
      <point x="-364" y="-420" type="curve" smooth="yes"/>
      <point x="-430" y="-420"/>
      <point x="-470" y="-460"/>
      <point x="-470" y="-525" type="curve" smooth="yes"/>
      <point x="-470" y="-590"/>
      <point x="-430" y="-635"/>
      <point x="-364" y="-635" type="curve" smooth="yes"/>
      <point x="-298" y="-635"/>
      <point x="-254" y="-590"/>
      <point x="-254" y="-525" type="curve" smooth="yes"/>
      <point x="-254" y="234" type="line"/>
      <point x="-130" y="470" type="line"/>
      <point x="-130" y="-525" type="line" smooth="yes"/>
      <point x="-130" y="-652"/>
      <point x="-235" y="-740"/>
      <point x="-364" y="-740" type="curve" smooth="yes"/>
      <point x="-483" y="-740"/>
      <point x="-574" y="-653"/>
      <point x="-574" y="-525" type="curve" smooth="yes"/>
      <point x="-574" y="-394"/>
      <point x="-484" y="-315"/>
      <point x="-374" y="-315" type="curve" smooth="yes"/>
      <point x="-260" y="-315"/>
      <point x="-150" y="-450"/>
    </contour>
  </outline>
</glyph>
